<?xml version="1.0" encoding="utf-8"?>
<!-- Generator: Adobe Illustrator 25.2.3, SVG Export Plug-In . SVG Version: 6.00 Build 0)  -->
<svg version="1.1" xmlns="http://www.w3.org/2000/svg" xmlns:xlink="http://www.w3.org/1999/xlink" x="0px" y="0px"
	 viewBox="0 0 1024 441" style="enable-background:new 0 0 1024 441;" xml:space="preserve">
<style type="text/css">
	.st0{fill:none;stroke:#000000;stroke-width:0.36;stroke-miterlimit:10;}
	.st1{fill:none;}
</style>
<g id="Layer_2">
</g>
<g id="Layer_1">
	<g>
		<path class="st0" d="M515.7,14.9H290.2 M352,63.9h632.5 M56.3,34.5h928.2 M515.7,24.7v-9.8h468.8 M1023.7,185.3v236 M994.3,175.5
			h19.6 M1011.9,15h-421 M994.3,24.7v351.5 M17.1,24.7v396.6 M46.5,73.7V44.3 M150.3,142.9V73.6 M297.1,142.9V73.6 M290.2,24.8V15
			H26.9 M489.1,150.1v9.8h66.6v-9.8 M46.5,73.7h9.8v322.1h928.2v-19.6H36.7V44.3h19.6v9.8h928.2v19.6h9.8 M994.3,44.3h-9.8V24.8
			H56.2v19.6h928.2v9.8h9.8 M342.2,73.7h642.3v302.6h19.6V184.4h-9.7 M1013.9,184.4v246.7 M1004.1,175.5v8.8h9.8v-8.8 M1014.2,24.7
			v140h7.5 M1021.7,24.7h-37.2V15 M26.9,15v416.1 M150.2,73.7h-94V54.1h-9.8 M160,150.1v9.8h25.5v-9.8 M306.9,150.1v9.8h25.5v-9.8
			 M1011.9,174.5c5.4,0,9.8-4.4,9.8-9.8 M1021.7,24.7c0-5.4-4.4-9.8-9.8-9.8 M1014.2,164.7l0,1l0,0.9l0,0.9l-0.1,0.9l-0.1,0.9
			l-0.1,0.8l-0.1,0.8l-0.1,0.7l-0.2,0.6l-0.2,0.6l-0.2,0.5l-0.2,0.4l-0.2,0.3l-0.2,0.2l-0.2,0.1l-0.2,0h-17.6 M1014.4,164.6h-19.9
			 M1021.9,24.6v140 M1012.1,14.8l0.2,0l0.2,0.1l0.2,0.2l0.2,0.3l0.2,0.4l0.2,0.5l0.2,0.6l0.2,0.6l0.1,0.7l0.1,0.8l0.1,0.8l0.1,0.9
			l0.1,0.9l0,0.9l0,0.9l0,1 M479.3,84.2h86.2 M479.3,94h86.2 M555.6,150.1c5.4,0,9.8-4.4,9.8-9.8 M479.3,140.3
			c0,5.4,4.4,9.8,9.8,9.8 M555.6,150.1h-66.6 M489.1,159.8l-3.3-3.4l-3.2-4.1l-1.4-2.4l-1.3-3.3l-0.5-3.7V73.7 M565.5,142.9V73.7
			 M555.7,159.9l3.3-3.4l3.2-4.1l1.4-2.4l1.3-3.3l0.5-3.7 M307,159.9l-3.3-3.4l-3.3-4.1l-1.4-2.4l-1.3-3.3l-0.5-3.7 M297.1,140.3
			c0,5.4,4.4,9.8,9.8,9.8 M332.4,150.1h-25.5 M332.4,159.8l3.3-3.4l3.3-4.1l1.4-2.4l1.3-3.3l0.5-3.7 M332.4,150.1
			c5.4,0,9.8-4.4,9.8-9.8 M342.2,142.9V73.7 M342.2,140.3h-45 M160.1,159.9l-3.3-3.4l-3.3-4.1l-1.4-2.4l-1.3-3.3l-0.5-3.7
			 M150.3,140.3c0,5.4,4.4,9.8,9.8,9.8 M185.5,150.1h-25.5 M185.5,159.8l3.3-3.4l3.3-4.1l1.4-2.4l1.3-3.3l0.5-3.7 M185.5,150.1
			c5.4,0,9.8-4.4,9.8-9.8 M195.3,142.9V73.7 M195.3,140.3h-45 M17.1,421.3c0,5.4,4.4,9.8,9.8,9.8 M17.1,212.7c0,5.4,4.4,9.8,9.8,9.8
			 M26.9,193.1c-5.4,0-9.8,4.4-9.8,9.8 M36.7,222.5h-9.8 M36.7,193.1h-9.8 M26.9,14.9c-5.4,0-9.8,4.4-9.8,9.8 M26.9,431.1h987
			 M1013.9,222.5c5.4,0,9.8-4.4,9.8-9.8 M1013.9,431.1c5.4,0,9.8-4.4,9.8-9.8 M36.7,193.1c5.4,0,9.8-4.4,9.8-9.8"/>
		<path class="st0" d="M46.5,232.3c0-5.4-4.4-9.8-9.8-9.8 M36.7,376.2c0,5.2,2.1,10.2,5.7,13.8l0,0c3.7,3.7,8.7,5.7,13.9,5.7
			 M984.5,395.8c5.2,0,10.2-2.1,13.8-5.7l0,0c3.7-3.7,5.7-8.7,5.7-13.8 M1004.1,222.5c-5.4,0-9.8,4.4-9.8,9.8 M994.3,183.3
			c0,5.4,4.4,9.8,9.8,9.8 M1004.1,222.5h9.8 M1018.1,194.1l-0.3-0.2l-0.3-0.3l-0.2-0.3l-0.2-0.4l-0.1-0.5l-0.1-0.5l0-0.6v-0.6l0-0.7
			l0.1-0.7l0.1-0.8l0.2-0.8l0.2-0.8l0.3-0.8l0.3-0.8 M1023.7,202.9c0-5.4-4.4-9.8-9.8-9.8 M1018.1,185.3l0.8,0.9l0.8,1l0.7,1.2
			l0.6,1.3l0.6,1.4l0.5,1.5l0.4,1.6l0.4,1.7l0.3,1.7l0.2,1.8l0.1,1.8l0,1.8 M1018.2,185.3c-1.4-0.7-2.9-1-4.4-1 M1023.7,185.3h-5.5
			 M1004.1,193.1h9.8 M150.2,73.6c0-2.6-1-5.1-2.9-7l0,0c-1.8-1.8-4.4-2.9-7-2.9 M140.5,63.7v0.2 M140.5,63.7h64.6 M287.3,63.7h59.1
			 M150.3,73.7c0-5.4-4.4-9.8-9.8-9.8 M56.3,63.9h84.2 M205,63.7c-2.6,0-5.1,1.1-7,3l0,0c-1.8,1.9-2.8,4.4-2.8,7 M205.1,63.9v-0.2
			 M195.3,73.6L195.3,73.6 M205.1,63.9c-5.4,0-9.8,4.4-9.8,9.8 M195.3,73.7h101.8 M205.1,63.9h82.2 M297.1,73.6c0-2.6-1-5.1-2.9-7
			l0,0c-1.9-1.8-4.4-2.9-7-2.9 M287.3,63.7v0.2 M297.1,73.7c0-5.4-4.4-9.8-9.8-9.8 M349.4,63.1c-4.3,1.3-7.3,5.4-7.2,9.9
			 M342.2,72.9v0.8 M352,63.9c-5.4,0-9.8,4.4-9.8,9.8 M346.1,63.7c1-0.1,2-0.3,3-0.6 M349.4,63.1c0.7,0.5,1.6,0.8,2.5,0.8
			 M349.3,54.1l-0.2,3.3l-0.6,3l-1.3,2.6l-0.8,0.7 M479.3,73.7c0-5.4-4.4-9.8-9.8-9.8 M575.2,63.9c-5.4,0-9.8,4.4-9.8,9.8 M353,34.5
			l-0.5,0.1l-1,0.8l-0.9,1.6l-0.6,2.1l-0.5,5.1 M994.3,44.3c0-5.4-4.4-9.8-9.8-9.8 M994.3,73.7c0-5.4-4.4-9.8-9.8-9.8 M984.5,386
			c5.4,0,9.8-4.4,9.8-9.8 M984.5,386H56.3 M46.5,376.2c0,5.4,4.4,9.8,9.8,9.8 M46.5,73.7v302.6 M56.2,63.9c-5.4,0-9.8,4.4-9.8,9.8
			 M389.1,63.9l0.5-0.1l1-0.8l0.9-1.6l0.6-2.1l0.5-5.1 M56.2,34.5c-5.4,0-9.8,4.4-9.8,9.8 M392.7,44.3l0.4-4.4l1.1-3.6l0.8-1.2
			l0.5-0.4l0.7-0.2 M994.3,24.7c0-5.4-4.4-9.8-9.8-9.8"/>
		<path class="st0" d="M392.7,54.1v-9.8 M349.3,54.1v-9.8 M580.6,34.5l0.5-0.1l1-0.8L583,32l0.6-2.1l0.5-5.1 M355,34.5l0.5-0.1
			l1-0.8l0.9-1.6l0.6-2.1l0.5-5.1 M515.7,24.8l-0.4,4.4l-1.1,3.6l-0.9,1.2l-0.5,0.4l-0.7,0.2 M584.1,24.8V15 M290.1,24.8l-0.4,4.4
			l-1.1,3.6l-0.9,1.2l-0.5,0.4l-0.7,0.2 M56.3,24.7c-5.2,0-10.2,2.1-13.9,5.7l0,0c-3.7,3.7-5.7,8.7-5.7,13.9 M358.6,24.7v-9.8
			 M1023.7,185.3c0-5.4-4.4-9.8-9.8-9.8"/>
		<rect x="651.2" y="234.4" class="st0" width="12.5" height="12.5"/>
		<rect x="598.3" y="234.4" class="st0" width="12.5" height="12.5"/>
		<rect x="543.5" y="234.4" class="st0" width="12.5" height="12.5"/>
		<rect x="490.6" y="234.4" class="st0" width="12.5" height="12.5"/>
		<rect x="435.8" y="234.4" class="st0" width="12.5" height="12.5"/>
		<rect x="382.9" y="234.4" class="st0" width="12.5" height="12.5"/>
		<rect x="651.2" y="171.7" class="st0" width="12.5" height="12.5"/>
		<rect x="602.2" y="171.7" class="st0" width="12.5" height="12.5"/>
		<rect x="549.4" y="171.7" class="st0" width="12.5" height="12.5"/>
		<rect x="498.5" y="171.7" class="st0" width="12.5" height="12.5"/>
		<rect x="443.6" y="171.7" class="st0" width="12.5" height="12.5"/>
		<rect x="386.8" y="171.7" class="st0" width="12.5" height="12.5"/>
		<rect x="653.2" y="299" class="st0" width="12.5" height="12.5"/>
		<rect x="602.2" y="299" class="st0" width="12.5" height="12.5"/>
		<rect x="551.3" y="299" class="st0" width="12.5" height="12.5"/>
		<rect x="443.6" y="297" class="st0" width="12.5" height="12.5"/>
		<rect x="384.9" y="297" class="st0" width="12.5" height="12.5"/>
		<path class="st0" d="M940.1,289.4h34.3v33.3 M881.5,289.3h34.3v33.3 M824.7,289.3h34.3v33.3 M769.8,289.3h34.3v33.3 M711,289.3
			h34.3v33.3 M745.3,322.7H711v-33.3 M804,322.7h-34.3v-33.3 M858.9,322.7h-34.3v-33.3 M915.6,322.7h-34.3v-33.3 M974.4,322.7h-34.3
			v-33.3 M940.1,218.8h34.3v33.3 M881.6,218.8h34.3v33.3 M824.7,218.8h34.3v33.3 M769.8,218.8h34.3v33.3 M711,218.8h34.3V252
			 M745.3,252.1H711v-33.3 M804,252.1h-34.3v-33.3 M858.9,252.1h-34.3v-33.3 M915.7,252.1h-34.3v-33.3 M974.4,252.1h-34.3v-33.3
			 M295.8,289.3h34.3v33.3 M237.3,289.3h34.3v33.3 M180.4,289.2h34.3v33.3 M125.6,289.2h34.3v33.3 M66.7,289.2H101v33.3 M101,322.6
			H66.7v-33.3 M159.8,322.6h-34.3v-33.3 M214.6,322.6h-34.3v-33.3 M271.4,322.6h-34.3v-33.3 M330.1,322.6h-34.3v-33.3 M295.8,222.7
			h34.3V256 M237.3,222.7h34.3v33.3 M180.4,222.6h34.3v33.3 M125.6,222.6h34.3v33.3 M66.8,222.6H101v33.3 M101,256H66.8v-33.3
			 M159.8,256h-34.3v-33.3 M214.6,256h-34.3v-33.3 M271.4,256h-34.3v-33.3 M330.2,256h-34.3v-33.3"/>
		<g>
			<path class="st1" d=""/>
			<desc>
				chs.cof.logical.schem.CAFPinList UID433a1e-153f27a42e0-e5e2634adf181f84e4d5d684933d25df UID433a1e-153f27a42df-e5e2634adf181f84e4d5d684933d25df
				</desc>
		</g>
		<g>
			<desc>
				chs.cof.logical.schem.CAFPinList UID433a1e-153f27a42e0-e5e2634adf181f84e4d5d684933d25df UID433a1e-153f27a42df-e5e2634adf181f84e4d5d684933d25df
				</desc>
		</g>
		<g>
			<desc>
				chs.cof.logical.schem.CAFPinList UID433a1e-153f27a42e0-e5e2634adf181f84e4d5d684933d25df UID433a1e-153f27a42df-e5e2634adf181f84e4d5d684933d25df
				</desc>
		</g>
		<g>
			<desc>
				chs.cof.logical.schem.CAFPinList UID433a1e-153f27a42e0-e5e2634adf181f84e4d5d684933d25df UID433a1e-153f27a42df-e5e2634adf181f84e4d5d684933d25df
				</desc>
		</g>
		<g>
			<desc>
				chs.cof.logical.schem.CAFPinList UID433a1e-153f27a42e0-e5e2634adf181f84e4d5d684933d25df UID433a1e-153f27a42df-e5e2634adf181f84e4d5d684933d25df
				</desc>
		</g>
		<g>
			<desc>
				chs.cof.logical.schem.CAFPinList UID433a1e-153f27a42e0-e5e2634adf181f84e4d5d684933d25df UID433a1e-153f27a42df-e5e2634adf181f84e4d5d684933d25df
				</desc>
		</g>
		<g>
			<desc>
				chs.cof.logical.schem.CAFPinList UID433a1e-153f27a42e0-e5e2634adf181f84e4d5d684933d25df UID433a1e-153f27a42df-e5e2634adf181f84e4d5d684933d25df
				</desc>
		</g>
		<g>
			<desc>
				chs.cof.logical.schem.CAFPinList UID433a1e-153f27a42e0-e5e2634adf181f84e4d5d684933d25df UID433a1e-153f27a42df-e5e2634adf181f84e4d5d684933d25df
				</desc>
		</g>
		<g>
			<desc>
				chs.cof.logical.schem.CAFPinList UID433a1e-153f27a42e0-e5e2634adf181f84e4d5d684933d25df UID433a1e-153f27a42df-e5e2634adf181f84e4d5d684933d25df
				</desc>
		</g>
		<g>
			<desc>
				chs.cof.logical.schem.CAFPinList UID433a1e-153f27a42e0-e5e2634adf181f84e4d5d684933d25df UID433a1e-153f27a42df-e5e2634adf181f84e4d5d684933d25df
				</desc>
		</g>
		<g>
			<desc>
				chs.cof.logical.schem.CAFPinList UID433a1e-153f27a42e0-e5e2634adf181f84e4d5d684933d25df UID433a1e-153f27a42df-e5e2634adf181f84e4d5d684933d25df
				</desc>
		</g>
		<g>
			<desc>
				chs.cof.logical.schem.CAFPinList UID433a1e-153f27a42e0-e5e2634adf181f84e4d5d684933d25df UID433a1e-153f27a42df-e5e2634adf181f84e4d5d684933d25df
				</desc>
		</g>
		<g>
			<desc>
				chs.cof.logical.schem.CAFPinList UID433a1e-153f27a42e0-e5e2634adf181f84e4d5d684933d25df UID433a1e-153f27a42df-e5e2634adf181f84e4d5d684933d25df
				</desc>
		</g>
		<g>
			<desc>
				chs.cof.logical.schem.CAFPinList UID433a1e-153f27a42e0-e5e2634adf181f84e4d5d684933d25df UID433a1e-153f27a42df-e5e2634adf181f84e4d5d684933d25df
				</desc>
		</g>
		<g>
			<desc>
				chs.cof.logical.schem.CAFPinList UID433a1e-153f27a42e0-e5e2634adf181f84e4d5d684933d25df UID433a1e-153f27a42df-e5e2634adf181f84e4d5d684933d25df
				</desc>
		</g>
		<g>
			<desc>
				chs.cof.logical.schem.CAFPinList UID433a1e-153f27a42e0-e5e2634adf181f84e4d5d684933d25df UID433a1e-153f27a42df-e5e2634adf181f84e4d5d684933d25df
				</desc>
		</g>
		<g>
			<desc>
				chs.cof.logical.schem.CAFPinList UID433a1e-153f27a42e0-e5e2634adf181f84e4d5d684933d25df UID433a1e-153f27a42df-e5e2634adf181f84e4d5d684933d25df
				</desc>
		</g>
		<g>
			<desc>
				chs.cof.logical.schem.CAFPinList UID433a1e-153f27a42e0-e5e2634adf181f84e4d5d684933d25df UID433a1e-153f27a42df-e5e2634adf181f84e4d5d684933d25df
				</desc>
		</g>
		<g>
			<desc>
				chs.cof.logical.schem.CAFPinList UID433a1e-153f27a42e0-e5e2634adf181f84e4d5d684933d25df UID433a1e-153f27a42df-e5e2634adf181f84e4d5d684933d25df
				</desc>
		</g>
		<g>
			<desc>
				chs.cof.logical.schem.CAFPinList UID433a1e-153f27a42e0-e5e2634adf181f84e4d5d684933d25df UID433a1e-153f27a42df-e5e2634adf181f84e4d5d684933d25df
				</desc>
		</g>
		<g>
			<desc>
				chs.cof.logical.schem.CAFPinList UID433a1e-153f27a42e0-e5e2634adf181f84e4d5d684933d25df UID433a1e-153f27a42df-e5e2634adf181f84e4d5d684933d25df
				</desc>
		</g>
		<g>
			<desc>
				chs.cof.logical.schem.CAFPinList UID433a1e-153f27a42e0-e5e2634adf181f84e4d5d684933d25df UID433a1e-153f27a42df-e5e2634adf181f84e4d5d684933d25df
				</desc>
		</g>
		<g>
			<desc>
				chs.cof.logical.schem.CAFPinList UID433a1e-153f27a42e0-e5e2634adf181f84e4d5d684933d25df UID433a1e-153f27a42df-e5e2634adf181f84e4d5d684933d25df
				</desc>
		</g>
		<g>
			<desc>
				chs.cof.logical.schem.CAFPinList UID433a1e-153f27a42e0-e5e2634adf181f84e4d5d684933d25df UID433a1e-153f27a42df-e5e2634adf181f84e4d5d684933d25df
				</desc>
		</g>
		<g>
			<desc>
				chs.cof.logical.schem.CAFPinList UID433a1e-153f27a42e0-e5e2634adf181f84e4d5d684933d25df UID433a1e-153f27a42df-e5e2634adf181f84e4d5d684933d25df
				</desc>
		</g>
		<g>
			<desc>
				chs.cof.logical.schem.CAFPinList UID433a1e-153f27a42e0-e5e2634adf181f84e4d5d684933d25df UID433a1e-153f27a42df-e5e2634adf181f84e4d5d684933d25df
				</desc>
		</g>
		<g>
			<desc>
				chs.cof.logical.schem.CAFPinList UID433a1e-153f27a42e0-e5e2634adf181f84e4d5d684933d25df UID433a1e-153f27a42df-e5e2634adf181f84e4d5d684933d25df
				</desc>
		</g>
		<g>
			<desc>
				chs.cof.logical.schem.CAFPinList UID433a1e-153f27a42e0-e5e2634adf181f84e4d5d684933d25df UID433a1e-153f27a42df-e5e2634adf181f84e4d5d684933d25df
				</desc>
		</g>
		<g>
			<desc>
				chs.cof.logical.schem.CAFPinList UID433a1e-153f27a42e0-e5e2634adf181f84e4d5d684933d25df UID433a1e-153f27a42df-e5e2634adf181f84e4d5d684933d25df
				</desc>
		</g>
		<g>
			<desc>
				chs.cof.logical.schem.CAFPinList UID433a1e-153f27a42e0-e5e2634adf181f84e4d5d684933d25df UID433a1e-153f27a42df-e5e2634adf181f84e4d5d684933d25df
				</desc>
		</g>
		<g>
			<desc>
				chs.cof.logical.schem.CAFPinList UID433a1e-153f27a42e0-e5e2634adf181f84e4d5d684933d25df UID433a1e-153f27a42df-e5e2634adf181f84e4d5d684933d25df
				</desc>
		</g>
		<g>
			<desc>
				chs.cof.logical.schem.CAFPinList UID433a1e-153f27a42e0-e5e2634adf181f84e4d5d684933d25df UID433a1e-153f27a42df-e5e2634adf181f84e4d5d684933d25df
				</desc>
		</g>
		<g>
			<desc>
				chs.cof.logical.schem.CAFPinList UID433a1e-153f27a42e0-e5e2634adf181f84e4d5d684933d25df UID433a1e-153f27a42df-e5e2634adf181f84e4d5d684933d25df
				</desc>
		</g>
		<g>
			<desc>
				chs.cof.logical.schem.CAFPinList UID433a1e-153f27a42e0-e5e2634adf181f84e4d5d684933d25df UID433a1e-153f27a42df-e5e2634adf181f84e4d5d684933d25df
				</desc>
		</g>
		<g>
			<desc>
				chs.cof.logical.schem.CAFPinList UID433a1e-153f27a42e0-e5e2634adf181f84e4d5d684933d25df UID433a1e-153f27a42df-e5e2634adf181f84e4d5d684933d25df
				</desc>
		</g>
		<g>
			<desc>
				chs.cof.logical.schem.CAFPinList UID433a1e-153f27a42e0-e5e2634adf181f84e4d5d684933d25df UID433a1e-153f27a42df-e5e2634adf181f84e4d5d684933d25df
				</desc>
		</g>
		<g>
			<desc>
				chs.cof.logical.schem.CAFPinList UID433a1e-153f27a42e0-e5e2634adf181f84e4d5d684933d25df UID433a1e-153f27a42df-e5e2634adf181f84e4d5d684933d25df
				</desc>
		</g>
	</g>
</g>
</svg>
