<?xml version='1.0' encoding='UTF-8' standalone='no' ?>  
<svg xmlns="http://www.w3.org/2000/svg" xml:space="preserve" height="768" viewBox="0,0 65416,26600" width="1024" xmlns:xlink="http://www.w3.org/1999/xlink">   
<defs>
<style type="text/css">
<![CDATA[
.A,.B{fill:none;fill-opacity:0.0;font-family:sans-serif;stroke-width:23px;}
.C{font-size:1850px;}
.D{font-size:1618px;}
.D,.C{fill:#000;fill-opacity:1.0;font-family:Lucida Sans;stroke-width:0.5px;}
.D,.C,.A,.B{fill-rule:evenodd;font-style:normal;font-weight:normal;stroke:#000;stroke-dasharray:none;stroke-linecap:butt;stroke-linejoin:miter;stroke-miterlimit:10;stroke-opacity:1.0;}
.a_{stroke:red;}
.b_{fill:red;}
.c_{stroke:#FA0;}
.d_{fill:#FA0;}
]]>
</style>
</defs>
<g>
<path class="A" d="M32947,8h-14409m3947,3127h40408m-59299,-1876h59299m-29946,-625v-625h29946m2502,10884v15075m-1876,-15700h1251m-125,-10258h-26897m25771,625v22456m-62426,-22456v25333m1876,-22206v-1875m6630,6297v-4427m9382,4427v-4427m-444,-3121v-625h-16819m29524,8632v625h4253v-625m-32527,-4879h625v20579h59299v-1251h-60550v-21205h1251v625h59299v1251h625m0,-1876h-625v-1251h-59299v1251h59299v625h625m-41659,1251h41034v19328h1251v-12260h-622m1247,0v15763m-625,-16326v562h625v-562m22,-9633v8944h477m0,-8944h-2376v-625m-61175,0v26584m7881,-22831h-6004v-1251h-625m7256,6130v625h1626v-625m7756,0v625h1626v-625M64646,10203 C64991,10203 65270,9924 65270,9579 M65270,632 C65270,287 64991,8 64646,8 M64793,9578l-1,61l-1,60l-3,59l-5,57l-5,56l-7,52l-8,49l-9,45l-10,41l-11,36l-12,31l-13,26l-13,20l-14,14l-14,8l-14,3h-1125m1273,-625h-1273m1751,-8944v8944m-625,-9570l14,3l14,8l14,14l13,20l13,26l12,31l11,36l10,41l9,45l8,49l7,52l5,56l5,57l3,59l1,60l1,61m-34176,3815h5504m-5504,625h5504M35496,8640 C35841,8640 36121,8360 36121,8015 M30616,8015 C30617,8360 30896,8640 31241,8640 M35496,8640h-4253m0,625l-211,-216l-207,-259l-91,-155l-82,-213l-32,-237v-4420m5504,4420v-4420m-625,5504l211,-216l207,-259l91,-155l82,-213l32,-237m-16513,1083l-210,-216l-208,-259l-91,-155l-82,-213l-32,-237M18982,8015 C18982,8360 19262,8640 19606,8640 M21234,8640h-1626m1626,625l210,-216l208,-259l91,-155l82,-213l32,-237M21235,8640 C21580,8640 21859,8360 21859,8015 M21859,8182v-4420m0,4253h-2877m-8757,1251l-210,-216l-208,-259l-91,-155l-82,-213l-32,-237M9599,8015 C9599,8360 9879,8640 10224,8640 M11851,8640h-1626m1626,625l210,-216l208,-259l91,-155l82,-213l32,-237M11852,8640 C12197,8640 12476,8360 12476,8015 M12476,8182v-4420m0,4253h-2877M1092,25967 C1092,26312 1372,26592 1717,26592 M1092,12644 C1092,12989 1372,13268 1717,13269 M1717,11392 C1372,11392 1092,11672 1092,12017 M2343,13269h-625m625,-1876h-625M1717,8 C1372,8 1092,287 1092,632 M1717,26592h63052M64771,13269 C65116,13268 65395,12989 65395,12644 M64771,26592 C65116,26592 65395,26312 65395,25967 M2344,11392 C2689,11392 2968,11112 2969,10767 "/>
<path class="A" d="M2969,13893 C2968,13548 2689,13269 2344,13269 M2343,23090 C2343,23421 2475,23739 2709,23974 L2709,23974 C2944,24209 3262,24340 3594,24340 M62894,24340 C63225,24340 63544,24209 63778,23974 L63778,23974 C64013,23739 64144,23421 64144,23090 M64143,13269 C63799,13269 63519,13548 63519,13893 M63519,10767 C63519,11112 63799,11392 64143,11392 M64144,13269h625m272,-1814l-19,-12l-16,-16l-14,-21l-11,-26l-8,-29l-5,-33l-3,-37v-41l3,-43l5,-45l8,-48l11,-50l14,-51l16,-52l19,-52M65395,12017 C65395,11672 65116,11392 64771,11392 M65042,10892l51,56l48,64l45,74l41,81l37,89l33,95l28,101l24,106l18,110l13,113l8,115l2,116M65047,10894 C64960,10851 64864,10829 64767,10829 M65395,10892h-353m-897,500h625M9598,3754 C9598,3587 9532,3426 9413,3307 L9413,3307 C9295,3189 9134,3122 8966,3122 M8973,3123v12m0,-12h4128m5254,0h3775M9599,3760 C9599,3415 9319,3135 8974,3135 M3594,3135h5379M13098,3122 C12931,3125 12771,3194 12654,3315 L12654,3315 C12538,3436 12474,3598 12477,3765 M13102,3135v-12m-625,635v-4M13101,3135 C12756,3135 12477,3415 12476,3760 M12476,3761h6505m-5879,-625h5254M18981,3754 C18981,3587 18915,3426 18796,3307 L18796,3307 C18677,3189 18517,3122 18349,3122 M18356,3123v12M18982,3760 C18982,3415 18702,3135 18357,3135 M22319,3083 C22042,3168 21854,3426 21859,3715 M21859,3709v49M22484,3135 C22139,3135 21859,3415 21859,3760 M22109,3125 C22173,3118 22237,3106 22299,3089 M22323,3082 C22370,3116 22426,3134 22484,3135 M22317,2510l-13,212l-41,191l-80,164l-49,44M30616,3760 C30616,3415 30337,3135 29992,3135 M36746,3135 C36401,3135 36121,3415 36121,3760 M22549,1259l-35,7l-65,54l-56,101l-41,136l-33,326M63519,1883 C63519,1538 63239,1259 62894,1259 M63519,3760 C63519,3415 63239,3135 62894,3135 M62894,23715 C63239,23715 63519,23435 63519,23090 M62893,23715h-59299M2969,23090 C2969,23435 3248,23715 3593,23715 M2969,3761v19328M3593,3135 C3248,3135 2969,3415 2969,3760 M24855,3135l34,-7l65,-54l55,-101l41,-136l34,-326M3593,1259 C3248,1259 2969,1538 2969,1883 M25086,1884l25,-283l73,-229l54,-76l30,-23l46,-13M63519,632 C63519,287 63239,8 62894,8 "/>
<path class="A" d="M25086,2510v-625m-2769,625v-625m14772,-625l34,-7l65,-54l56,-101l41,-136l33,-326m-14641,625l34,-7l65,-54l56,-101l41,-136l33,-326m10036,0l-25,283l-73,229l-55,76l-29,23l-47,13m4604,-625v-625m-18782,625l-25,283l-73,229l-55,76l-29,23l-47,13M3594,633 C3262,633 2944,765 2709,999 L2709,999 C2475,1234 2343,1552 2343,1884 M22910,633v-625M65395,10891 C65395,10546 65116,10266 64771,10266 "/>
<rect class="B" x="41601" y="14026" width="800" height="800"/>
<rect class="B" x="38223" y="14026" width="800" height="800"/>
<rect class="B" x="34720" y="14026" width="800" height="800"/>
<rect class="B" x="31342" y="14026" width="800" height="800"/>
<rect class="B" x="27839" y="14026" width="800" height="800"/>
<rect class="B" x="24462" y="14026" width="800" height="800"/>
<rect class="B" x="41601" y="10023" width="800" height="800"/>
<rect class="B" x="38473" y="10023" width="800" height="800"/>
<rect class="B" x="35095" y="10023" width="800" height="800"/>
<rect class="B" x="31843" y="10023" width="800" height="800"/>
<rect class="B" x="28340" y="10023" width="800" height="800"/>
<rect class="B" x="24712" y="10023" width="800" height="800"/>
<rect class="B" x="41726" y="18155" width="800" height="800"/>
<rect class="B" x="38473" y="18155" width="800" height="800"/>
<rect class="B" x="35221" y="18155" width="800" height="800"/>
<rect class="B" x="28340" y="18030" width="800" height="800"/>
<rect class="B" x="24587" y="18030" width="800" height="800"/>
<path class="A" d="M60055,17539h2189v2126m-5929,-2129h2189v2126m-5822,-2127h2189v2126m-5692,-2126h2189v2126m-5947,-2127h2189v2126m0,6h-2189v-2126m5942,2126h-2189v-2126m5692,2126h-2189v-2126m5817,2126h-2189v-2126m5942,2126h-2189v-2126m-2,-4506h2189v2126m-5929,-2129h2189v2126m-5822,-2127h2189v2126m-5692,-2126h2189v2126m-5947,-2127h2189v2126m0,6h-2189v-2126m5942,2126h-2189v-2126m5692,2126h-2189v-2126m5817,2126h-2189v-2126m5942,2126h-2189v-2126m-41161,4501h2189v2126m-5929,-2129h2189v2126m-5822,-2127h2189v2126m-5692,-2126h2189v2126m-5947,-2127h2189v2126m0,6h-2189v-2126m5942,2126h-2189v-2126m5692,2126h-2189v-2126m5817,2126h-2189v-2126m5942,2126h-2189v-2126m-2,-4256h2189v2126m-5929,-2129h2189v2126m-5822,-2127h2189v2126m-5692,-2126h2189v2126m-5947,-2127h2189v2126m0,6h-2189v-2126m5942,2126h-2189v-2126m5692,2126h-2189v-2126m5817,2126h-2189v-2126m5942,2126h-2189v-2126"/>
<g><desc>chs.cof.logical.schem.CAFPinList UID433a1e-153f27a42e0-e5e2634adf181f84e4d5d684933d25df UID433a1e-153f27a42df-e5e2634adf181f84e4d5d684933d25df</desc>
<text class="C" x="28530" y="12603">2</text>
</g>
<g><desc>chs.cof.logical.schem.CAFPinList UID433a1e-153f27a42e0-e5e2634adf181f84e4d5d684933d25df UID433a1e-153f27a42df-e5e2634adf181f84e4d5d684933d25df</desc>
<text class="C" x="24902" y="12603">1</text>
</g>
<g><desc>chs.cof.logical.schem.CAFPinList UID433a1e-153f27a42e0-e5e2634adf181f84e4d5d684933d25df UID433a1e-153f27a42df-e5e2634adf181f84e4d5d684933d25df</desc>
<text class="C" x="32102" y="12572">3</text>
</g>
<g><desc>chs.cof.logical.schem.CAFPinList UID433a1e-153f27a42e0-e5e2634adf181f84e4d5d684933d25df UID433a1e-153f27a42df-e5e2634adf181f84e4d5d684933d25df</desc>
<text class="C" x="35286" y="12603">4</text>
</g>
<g><desc>chs.cof.logical.schem.CAFPinList UID433a1e-153f27a42e0-e5e2634adf181f84e4d5d684933d25df UID433a1e-153f27a42df-e5e2634adf181f84e4d5d684933d25df</desc>
<text class="C" x="38664" y="12603">5</text>
</g>
<g><desc>chs.cof.logical.schem.CAFPinList UID433a1e-153f27a42e0-e5e2634adf181f84e4d5d684933d25df UID433a1e-153f27a42df-e5e2634adf181f84e4d5d684933d25df</desc>
<text class="C" x="41791" y="12603">6</text>
</g>
<g><desc>chs.cof.logical.schem.CAFPinList UID433a1e-153f27a42e0-e5e2634adf181f84e4d5d684933d25df UID433a1e-153f27a42df-e5e2634adf181f84e4d5d684933d25df</desc>
<text class="C" x="8580" y="17107">8</text>
</g>
<g><desc>chs.cof.logical.schem.CAFPinList UID433a1e-153f27a42e0-e5e2634adf181f84e4d5d684933d25df UID433a1e-153f27a42df-e5e2634adf181f84e4d5d684933d25df</desc>
<text class="C" x="5271" y="17201">7</text>
</g>
<g><desc>chs.cof.logical.schem.CAFPinList UID433a1e-153f27a42e0-e5e2634adf181f84e4d5d684933d25df UID433a1e-153f27a42df-e5e2634adf181f84e4d5d684933d25df</desc>
<text class="C" x="11708" y="17107">9</text>
</g>
<g><desc>chs.cof.logical.schem.CAFPinList UID433a1e-153f27a42e0-e5e2634adf181f84e4d5d684933d25df UID433a1e-153f27a42df-e5e2634adf181f84e4d5d684933d25df</desc>
<text class="C" x="14585" y="17107">10</text>
</g>
<g><desc>chs.cof.logical.schem.CAFPinList UID433a1e-153f27a42e0-e5e2634adf181f84e4d5d684933d25df UID433a1e-153f27a42df-e5e2634adf181f84e4d5d684933d25df</desc>
<text class="C" x="18885" y="17130">11</text>
</g>
<g><desc>chs.cof.logical.schem.CAFPinList UID433a1e-153f27a42e0-e5e2634adf181f84e4d5d684933d25df UID433a1e-153f27a42df-e5e2634adf181f84e4d5d684933d25df</desc>
<text class="C" x="23791" y="17162">12</text>
</g>
<g><desc>chs.cof.logical.schem.CAFPinList UID433a1e-153f27a42e0-e5e2634adf181f84e4d5d684933d25df UID433a1e-153f27a42df-e5e2634adf181f84e4d5d684933d25df</desc>
<text class="C" x="27517" y="17130">13</text>
</g>
<g><desc>chs.cof.logical.schem.CAFPinList UID433a1e-153f27a42e0-e5e2634adf181f84e4d5d684933d25df UID433a1e-153f27a42df-e5e2634adf181f84e4d5d684933d25df</desc>
<text class="C" x="30701" y="17162">14</text>
</g>
<g><desc>chs.cof.logical.schem.CAFPinList UID433a1e-153f27a42e0-e5e2634adf181f84e4d5d684933d25df UID433a1e-153f27a42df-e5e2634adf181f84e4d5d684933d25df</desc>
<text class="C" x="34329" y="17162">15</text>
</g>
<g><desc>chs.cof.logical.schem.CAFPinList UID433a1e-153f27a42e0-e5e2634adf181f84e4d5d684933d25df UID433a1e-153f27a42df-e5e2634adf181f84e4d5d684933d25df</desc>
<text class="C" x="37706" y="17162">16</text>
</g>
<g><desc>chs.cof.logical.schem.CAFPinList UID433a1e-153f27a42e0-e5e2634adf181f84e4d5d684933d25df UID433a1e-153f27a42df-e5e2634adf181f84e4d5d684933d25df</desc>
<text class="C" x="40903" y="17130">17</text>
</g>
<g><desc>chs.cof.logical.schem.CAFPinList UID433a1e-153f27a42e0-e5e2634adf181f84e4d5d684933d25df UID433a1e-153f27a42df-e5e2634adf181f84e4d5d684933d25df</desc>
<text class="D" x="45646" y="16914">18</text>
</g>
<g><desc>chs.cof.logical.schem.CAFPinList UID433a1e-153f27a42e0-e5e2634adf181f84e4d5d684933d25df UID433a1e-153f27a42df-e5e2634adf181f84e4d5d684933d25df</desc>
<text class="D" x="53027" y="16914">20</text>
</g>
<g><desc>chs.cof.logical.schem.CAFPinList UID433a1e-153f27a42e0-e5e2634adf181f84e4d5d684933d25df UID433a1e-153f27a42df-e5e2634adf181f84e4d5d684933d25df</desc>
<text class="D" x="49468" y="16883">19</text>
</g>
<g><desc>chs.cof.logical.schem.CAFPinList UID433a1e-153f27a42e0-e5e2634adf181f84e4d5d684933d25df UID433a1e-153f27a42df-e5e2634adf181f84e4d5d684933d25df</desc>
<text class="D" x="56349" y="16883">21</text>
</g>
<g><desc>chs.cof.logical.schem.CAFPinList UID433a1e-153f27a42e0-e5e2634adf181f84e4d5d684933d25df UID433a1e-153f27a42df-e5e2634adf181f84e4d5d684933d25df</desc>
<text class="D" x="60033" y="16914">22</text>
</g>
<g><desc>chs.cof.logical.schem.CAFPinList UID433a1e-153f27a42e0-e5e2634adf181f84e4d5d684933d25df UID433a1e-153f27a42df-e5e2634adf181f84e4d5d684933d25df</desc>
<text class="D" x="4361" y="21418">23</text>
</g>
<g><desc>chs.cof.logical.schem.CAFPinList UID433a1e-153f27a42e0-e5e2634adf181f84e4d5d684933d25df UID433a1e-153f27a42df-e5e2634adf181f84e4d5d684933d25df</desc>
<text class="D" x="7989" y="21418">24</text>
</g>
<g><desc>chs.cof.logical.schem.CAFPinList UID433a1e-153f27a42e0-e5e2634adf181f84e4d5d684933d25df UID433a1e-153f27a42df-e5e2634adf181f84e4d5d684933d25df</desc>
<text class="D" x="11686" y="21387">25</text>
</g>
<g><desc>chs.cof.logical.schem.CAFPinList UID433a1e-153f27a42e0-e5e2634adf181f84e4d5d684933d25df UID433a1e-153f27a42df-e5e2634adf181f84e4d5d684933d25df</desc>
<text class="D" x="15245" y="21418">26</text>
</g>
<g><desc>chs.cof.logical.schem.CAFPinList UID433a1e-153f27a42e0-e5e2634adf181f84e4d5d684933d25df UID433a1e-153f27a42df-e5e2634adf181f84e4d5d684933d25df</desc>
<text class="D" x="24253" y="21168">28</text>
</g>
<g><desc>chs.cof.logical.schem.CAFPinList UID433a1e-153f27a42e0-e5e2634adf181f84e4d5d684933d25df UID433a1e-153f27a42df-e5e2634adf181f84e4d5d684933d25df</desc>
<text class="D" x="18943" y="21387">27</text>
</g>
<g><desc>chs.cof.logical.schem.CAFPinList UID433a1e-153f27a42e0-e5e2634adf181f84e4d5d684933d25df UID433a1e-153f27a42df-e5e2634adf181f84e4d5d684933d25df</desc>
<text class="D" x="27881" y="21168">29</text>
</g>
<g><desc>chs.cof.logical.schem.CAFPinList UID433a1e-153f27a42e0-e5e2634adf181f84e4d5d684933d25df UID433a1e-153f27a42df-e5e2634adf181f84e4d5d684933d25df</desc>
<text class="D" x="38014" y="21293">31</text>
</g>
<g><desc>chs.cof.logical.schem.CAFPinList UID433a1e-153f27a42e0-e5e2634adf181f84e4d5d684933d25df UID433a1e-153f27a42df-e5e2634adf181f84e4d5d684933d25df</desc>
<text class="D" x="34956" y="21262">30</text>
</g>
<g><desc>chs.cof.logical.schem.CAFPinList UID433a1e-153f27a42e0-e5e2634adf181f84e4d5d684933d25df UID433a1e-153f27a42df-e5e2634adf181f84e4d5d684933d25df</desc>
<text class="D" x="40961" y="21262">32</text>
</g>
<g><desc>chs.cof.logical.schem.CAFPinList UID433a1e-153f27a42e0-e5e2634adf181f84e4d5d684933d25df UID433a1e-153f27a42df-e5e2634adf181f84e4d5d684933d25df</desc>
<text class="D" x="45646" y="21418">33</text>
</g>
<g><desc>chs.cof.logical.schem.CAFPinList UID433a1e-153f27a42e0-e5e2634adf181f84e4d5d684933d25df UID433a1e-153f27a42df-e5e2634adf181f84e4d5d684933d25df</desc>
<text class="D" x="49274" y="21418">34</text>
</g>
<g><desc>chs.cof.logical.schem.CAFPinList UID433a1e-153f27a42e0-e5e2634adf181f84e4d5d684933d25df UID433a1e-153f27a42df-e5e2634adf181f84e4d5d684933d25df</desc>
<text class="D" x="53027" y="21418">35</text>
</g>
<g><desc>chs.cof.logical.schem.CAFPinList UID433a1e-153f27a42e0-e5e2634adf181f84e4d5d684933d25df UID433a1e-153f27a42df-e5e2634adf181f84e4d5d684933d25df</desc>
<text class="D" x="56599" y="21387">36</text>
</g>
<g><desc>chs.cof.logical.schem.CAFPinList UID433a1e-153f27a42e0-e5e2634adf181f84e4d5d684933d25df UID433a1e-153f27a42df-e5e2634adf181f84e4d5d684933d25df</desc>
<text class="D" x="60283" y="21418">37</text>
</g>
</g></svg>
